<mxfile host="app.diagrams.net" modified="2023-06-03T09:51:10.216Z" agent="Mozilla/5.0 (Macintosh; Intel Mac OS X 10_15_7) AppleWebKit/537.36 (KHTML, like Gecko) Chrome/113.0.0.0 Safari/537.36" version="21.2.9" etag="AbEkiIRKbMXWExzThTxU" type="github">
  <diagram name="第 1 页" id="mPC_H9H9xh-KcCqJc-Dz">
    <mxGraphModel>
      <root>
        <mxCell id="0" />
        <mxCell id="1" parent="0" />
      </root>
    </mxGraphModel>
  </diagram>
</mxfile>
